P3
4 4 255
24 3 3
22 1 1
21 0 0
21 0 0
21 0 0
21 0 0
21 0 0
40 14 57
255 8 255
255 4 255
17 2 68
29 255 255
21 0 0
255 255 255
255 255 255
0 219 230